/home/minht/3dpredictsim_tutorial/predsim_tutorial/Results/Case_13/GRF.mot
version=1
nRows=27
nColumns=19
inDegrees=yes
endheader 
time	r_ground_force_vx	r_ground_force_vy	r_ground_force_vz	r_ground_force_px	r_ground_force_py	r_ground_force_pz	l_ground_force_vx	l_ground_force_vy	l_ground_force_vz	l_ground_force_px	l_ground_force_py	l_ground_force_pz	r_ground_torque_x	r_ground_torque_y	r_ground_torque_z	l_ground_torque_x	l_ground_torque_y	l_ground_torque_z	
          0.50649296	         46.96671082	        872.27798305	        -23.83228043	          0.19984644	          0.00000000	          0.06116808	          0.00000000	          0.00000000	          0.00000000	          0.00000000	          0.00000000	          0.00000000	          0.00000000	          1.13316864	          0.00000000	          0.00000000	          0.00000000	          0.00000000	
          0.52184123	         50.96379104	        877.90578253	        -24.16812973	          0.20043760	          0.00000000	          0.06166637	          0.00000000	          0.00000000	          0.00000000	          0.00000000	          0.00000000	          0.00000000	          0.00000000	          1.53890866	          0.00000000	          0.00000000	          0.00000000	          0.00000000	
          0.53718950	         53.74314514	        882.99730426	        -24.29544476	          0.20119054	          0.00000000	          0.06215022	          0.00000000	          0.00000000	          0.00000000	          0.00000000	          0.00000000	          0.00000000	          0.00000000	          1.94566001	          0.00000000	          0.00000000	          0.00000000	          0.00000000	
          0.55253778	         56.46446850	        887.10132181	        -24.30740811	          0.20208873	          0.00000000	          0.06261690	          0.00000000	          0.00000000	          0.00000000	          0.00000000	          0.00000000	          0.00000000	          0.00000000	          2.34985432	          0.00000000	          0.00000000	          0.00000000	          0.00000000	
          0.56788605	         59.03500259	        889.67590735	        -24.21356984	          0.20308018	          0.00000000	          0.06305953	          0.00000000	          0.00000000	          0.00000000	          0.00000000	          0.00000000	          0.00000000	          0.00000000	          2.75572004	          0.00000000	          0.00000000	          0.00000000	          0.00000000	
          0.58323432	         61.49846799	        890.58911466	        -23.97950785	          0.20414246	          0.00000000	          0.06347693	          0.00000000	          0.00000000	          0.00000000	          0.00000000	          0.00000000	          0.00000000	          0.00000000	          3.14782916	          0.00000000	          0.00000000	          0.00000000	          0.00000000	
          0.59858259	         63.60702374	        889.85098047	        -23.62157381	          0.20525817	          0.00000000	          0.06386971	          0.00000000	          0.00000000	          0.00000000	          0.00000000	          0.00000000	          0.00000000	          0.00000000	          3.54952386	          0.00000000	          0.00000000	          0.00000000	          0.00000000	
          0.61393086	         65.71845375	        887.56525108	        -22.99257008	          0.20641142	          0.00000000	          0.06423761	          0.00000000	          0.00000000	          0.00000000	          0.00000000	          0.00000000	          0.00000000	          0.00000000	          3.92580071	          0.00000000	          0.00000000	          0.00000000	          0.00000000	
          0.62927913	         68.65593193	        883.59064021	        -21.90811961	          0.20763441	          0.00000000	          0.06459601	          0.00000000	          0.00000000	          0.00000000	          0.00000000	          0.00000000	          0.00000000	          0.00000000	          4.24707764	          0.00000000	          0.00000000	          0.00000000	          0.00000000	
          0.64462741	         71.88625752	        878.64421372	        -20.77039664	          0.20902400	          0.00000000	          0.06497147	          0.00000000	          0.00000000	          0.00000000	          0.00000000	          0.00000000	          0.00000000	          0.00000000	          4.49580946	          0.00000000	          0.00000000	          0.00000000	          0.00000000	
          0.65997568	         75.27189163	        873.93481620	        -19.59449269	          0.21061721	          0.00000000	          0.06538704	          0.00000000	          0.00000000	          0.00000000	          0.00000000	          0.00000000	          0.00000000	          0.00000000	          4.63957044	          0.00000000	          0.00000000	          0.00000000	          0.00000000	
          0.67532395	         78.93722347	        869.41545560	        -18.49888434	          0.21239477	          0.00000000	          0.06585493	          0.00000000	          0.00000000	          0.00000000	          0.00000000	          0.00000000	          0.00000000	          0.00000000	          4.71201762	          0.00000000	          0.00000000	          0.00000000	          0.00000000	
          0.69067222	         83.24719377	        866.27495428	        -17.33229370	          0.21444909	          0.00000000	          0.06641517	          0.00000000	          0.00000000	          0.00000000	          0.00000000	          0.00000000	          0.00000000	          0.00000000	          4.69473405	          0.00000000	          0.00000000	          0.00000000	          0.00000000	
          0.70602049	         88.58514790	        865.56183418	        -16.29346045	          0.21689704	          0.00000000	          0.06710528	          0.00000000	          0.00000000	          0.00000000	          0.00000000	          0.00000000	          0.00000000	          0.00000000	          4.59993089	          0.00000000	          0.00000000	          0.00000000	          0.00000000	
          0.72136876	         94.35975365	        867.98064505	        -15.58371997	          0.21989526	          0.00000000	          0.06796850	          0.00000000	          0.00000000	          0.00000000	          0.00000000	          0.00000000	          0.00000000	          0.00000000	          4.46321762	          0.00000000	          0.00000000	          0.00000000	          0.00000000	
          0.73671704	        100.06304690	        872.73373799	        -15.28296711	          0.22358651	          0.00000000	          0.06903954	          0.00000000	          0.00000000	          0.00000000	          0.00000000	          0.00000000	          0.00000000	          0.00000000	          4.31926636	          0.00000000	          0.00000000	          0.00000000	          0.00000000	
          0.75206531	        105.45860469	        877.11130553	        -15.60957045	          0.22806478	          0.00000000	          0.07033692	          0.00000000	          0.00000000	          0.00000000	          0.00000000	          0.00000000	          0.00000000	          0.00000000	          4.19243808	          0.00000000	          0.00000000	          0.00000000	          0.00000000	
          0.76741358	        110.14085964	        874.86582041	        -16.84251490	          0.23328799	          0.00000000	          0.07182277	          0.00000000	          0.00000000	          0.00000000	          0.00000000	          0.00000000	          0.00000000	          0.00000000	          4.34941433	          0.00000000	          0.00000000	          0.00000000	          0.00000000	
          0.78276185	        111.85582317	        860.53041170	        -17.56746088	          0.23945357	          0.00000000	          0.07350812	        -61.43527920	         47.62836403	        -20.87109423	          0.64752025	          0.00000000	         -0.09851046	          0.00000000	          4.89501000	          0.00000000	          0.00000000	          0.00032231	          0.00000000	
          0.79811012	        109.92490705	        830.53053134	        -15.32109123	          0.24688449	          0.00000000	          0.07542667	        -88.39667408	         86.09454800	        -42.84498036	          0.66067710	          0.00000000	         -0.09391264	          0.00000000	          5.82260830	          0.00000000	          0.00000000	          0.00171332	          0.00000000	
          0.81345839	        102.75935208	        783.58262764	        -10.69518598	          0.25571506	          0.00000000	          0.07759671	        -75.79739399	        155.78656902	        -71.26666620	          0.67096827	          0.00000000	         -0.09072786	          0.00000000	          6.28955750	          0.00000000	          0.00000000	          0.07139063	          0.00000000	
          0.82880666	         94.57207578	        717.29155240	         -6.01237295	          0.26622661	          0.00000000	          0.08014174	        -42.05158648	        297.74302557	        -32.24769304	          0.68378059	          0.00000000	         -0.08658428	          0.00000000	          5.58556938	          0.00000000	          0.00000000	         -0.26059886	          0.00000000	
          0.84415494	         84.75167581	        634.92002461	         -1.59338613	          0.27943746	          0.00000000	          0.08306879	        -94.25928445	        553.48227331	        -21.65827583	          0.70875657	          0.00000000	         -0.08202142	          0.00000000	          4.55565190	          0.00000000	          0.00000000	         -2.91532599	          0.00000000	
          0.85950321	         63.62443147	        541.47847082	          6.32707902	          0.29568187	          0.00000000	          0.08615247	       -130.77644881	        769.88203059	        -18.83359689	          0.71789210	          0.00000000	         -0.08122461	          0.00000000	          3.71745670	          0.00000000	          0.00000000	         -5.78929758	          0.00000000	
          0.87485148	         46.96258365	        464.60755384	         15.77732636	          0.30781771	          0.00000000	          0.08767247	       -139.00027989	        858.20464604	        -16.03312749	          0.72127516	          0.00000000	         -0.08116205	          0.00000000	          3.41397451	          0.00000000	          0.00000000	         -6.57884511	          0.00000000	
          0.89019975	         32.67744672	        389.74916938	         20.86531085	          0.31925106	          0.00000000	          0.08938453	       -134.61414877	        866.26749903	        -13.63355817	          0.72324539	          0.00000000	         -0.08103569	          0.00000000	          2.92172471	          0.00000000	          0.00000000	         -5.75712512	          0.00000000	
          0.90554802	         21.59017175	        324.35683478	         24.15467118	          0.32884578	          0.00000000	          0.09141463	       -125.81575522	        853.75403672	        -11.43015092	          0.72478040	          0.00000000	         -0.08088329	          0.00000000	          2.54403634	          0.00000000	          0.00000000	         -4.53142492	          0.00000000	
